# xmcd
# 
# Track frame offsets:
#     150
#     18264
#     57158
#     70580
#     92118
#     106466
#     131050
#     163142
#     182470
#     197953
#     233776
#     238576
#     264478
#     282365
# 
# Disc length: 3945
# 
# Revision: 1
# Processed by: cddbd v1.5.2PL0 Copyright (c) Steve Scherf et al.
# Submitted via: fre:ac v1.1beta1pre5
# 
DISCID=c20f670e
DTITLE=Various Artist - World Music Arabia
DYEAR=2005
DGENRE=New Age
TTITLE0=Ofra Haza - Im Nin' Alu
TTITLE1=Granaria - Hai Kai Yai
TTITLE2=Granaria - Bahr Bela Ma
TTITLE3=Thievery Corporation - Lebanese Blonde
TTITLE4=Bhangra Knights vs Husan - Husan
TTITLE5=Granaria - Sands of the Sahal
TTITLE6=Granaria - Arabesque
TTITLE7=Xenofonix - Shammar
TTITLE8=Holly Vallanee - Kiss Kiss
TTITLE9=Granaria - Nirbandh
TTITLE10=Granaria - Mijwiz
TTITLE11=Granaria - Kursish Moon
TTITLE12=Panjabi Mc - Mundian to Bach Ke
TTITLE13=Granaria - Ghibli
EXTD=
EXTT0=
EXTT1=
EXTT2=
EXTT3=
EXTT4=
EXTT5=
EXTT6=
EXTT7=
EXTT8=
EXTT9=
EXTT10=
EXTT11=
EXTT12=
EXTT13=
PLAYORDER=
